<svg width="20" height="14" viewBox="0 0 20 14" fill="none" xmlns="http://www.w3.org/2000/svg">
<path fill-rule="evenodd" clip-rule="evenodd" d="M9.98395 0.00247002C11.9119 -0.00430351 15.5437 -0.0306598 17.2812 0.486337C18.0025 0.700733 18.9206 1.24939 19.3428 1.88257C20.1902 3.15319 19.989 6.73653 19.9549 8.24172C19.9278 9.4346 19.9547 10.875 19.0826 11.7977C18.5971 12.3111 17.7669 12.8108 16.8943 12.983C14.3486 13.4859 5.619 13.4859 3.07319 12.983C2.20058 12.8106 1.37054 12.3111 0.884904 11.7977C0.0127394 10.875 0.0396756 9.4346 0.0125815 8.24172C-0.00847534 7.31316 -0.00845923 4.81609 0.0548585 4.00003C0.196219 2.1778 0.824683 1.04015 2.68622 0.486337C4.42407 -0.0306598 8.0557 -0.00430351 9.98395 0.00247002Z" fill="white"/>
<path fill-rule="evenodd" clip-rule="evenodd" d="M13.1884 6.39702L10.5912 4.90095L7.99414 3.40503V6.39702V9.38914L10.5912 7.89308L13.1884 6.39702Z" fill="#A6D17C"/>
</svg>
