<svg width="91" height="91" viewBox="0 0 91 91" fill="none" xmlns="http://www.w3.org/2000/svg">
<path fill-rule="evenodd" clip-rule="evenodd" d="M7.55078 32.0895V81.1675C7.55078 81.6681 7.74965 82.1483 8.10365 82.5023C8.45765 82.8562 8.93777 83.0551 9.4384 83.0551H81.1678C81.6684 83.0551 82.1485 82.8562 82.5025 82.5023C82.8565 82.1483 83.0554 81.6681 83.0554 81.1675C83.0554 80.6669 82.8565 80.1868 82.5025 79.8328C82.1485 79.4788 81.6684 79.2799 81.1678 79.2799H11.326V32.0895C11.326 31.5889 11.1271 31.1088 10.7731 30.7548C10.4191 30.4008 9.93902 30.2019 9.4384 30.2019C8.93777 30.2019 8.45765 30.4008 8.10365 30.7548C7.74965 31.1088 7.55078 31.5889 7.55078 32.0895ZM81.1678 58.5161C81.1678 58.0155 80.9689 57.5354 80.6149 57.1814C80.2609 56.8274 79.7808 56.6285 79.2802 56.6285H67.9545C67.4538 56.6285 66.9737 56.8274 66.6197 57.1814C66.2657 57.5354 66.0668 58.0155 66.0668 58.5161V75.5047C66.0668 76.0053 66.2657 76.4854 66.6197 76.8394C66.9737 77.1934 67.4538 77.3923 67.9545 77.3923H79.2802C79.7808 77.3923 80.2609 77.1934 80.6149 76.8394C80.9689 76.4854 81.1678 76.0053 81.1678 75.5047V58.5161ZM64.1792 50.9657C64.1792 50.465 63.9804 49.9849 63.6264 49.6309C63.2724 49.2769 62.7922 49.078 62.2916 49.078H50.9659C50.4653 49.078 49.9852 49.2769 49.6312 49.6309C49.2772 49.9849 49.0783 50.465 49.0783 50.9657V75.5047C49.0783 76.0053 49.2772 76.4854 49.6312 76.8394C49.9852 77.1934 50.4653 77.3923 50.9659 77.3923H62.2916C62.7922 77.3923 63.2724 77.1934 63.6264 76.8394C63.9804 76.4854 64.1792 76.0053 64.1792 75.5047V50.9657ZM47.1907 41.5276C47.1907 41.027 46.9918 40.5468 46.6378 40.1928C46.2838 39.8388 45.8037 39.64 45.3031 39.64H33.9774C33.4768 39.64 32.9966 39.8388 32.6426 40.1928C32.2886 40.5468 32.0898 41.027 32.0898 41.5276V75.5047C32.0898 76.0053 32.2886 76.4854 32.6426 76.8394C32.9966 77.1934 33.4768 77.3923 33.9774 77.3923H45.3031C45.8037 77.3923 46.2838 77.1934 46.6378 76.8394C46.9918 76.4854 47.1907 76.0053 47.1907 75.5047V41.5276ZM33.9774 22.6514C34.3501 22.6496 34.7138 22.5375 35.0229 22.3292C35.3319 22.1209 35.5724 21.8258 35.714 21.4811C35.8585 21.1374 35.898 20.7585 35.8275 20.3923C35.7569 20.0261 35.5795 19.6891 35.3176 19.4236L23.9919 8.09793C23.8164 7.92101 23.6077 7.78058 23.3776 7.68475C23.1476 7.58891 22.9009 7.53958 22.6517 7.53958C22.4025 7.53958 22.1558 7.58891 21.9258 7.68475C21.6957 7.78058 21.487 7.92101 21.3115 8.09793L9.9858 19.4236C9.72388 19.6891 9.54646 20.0261 9.47591 20.3923C9.40536 20.7585 9.44485 21.1374 9.58941 21.4811C9.73101 21.8258 9.97149 22.1209 10.2805 22.3292C10.5896 22.5375 10.9533 22.6496 11.326 22.6514H15.1012V75.5047C15.1012 76.0053 15.3001 76.4854 15.6541 76.8394C16.0081 77.1934 16.4882 77.3923 16.9889 77.3923H28.3145C28.8152 77.3923 29.2953 77.1934 29.6493 76.8394C30.0033 76.4854 30.2022 76.0053 30.2022 75.5047V22.6514H33.9774ZM63.9905 34.5812L67.2372 37.7524C66.7353 38.8089 66.5729 39.9949 66.7723 41.1475C66.9717 42.3001 67.5232 43.3626 68.3509 44.1891L71.8241 47.6623C72.8859 48.7228 74.3251 49.3185 75.8258 49.3185C77.3265 49.3185 78.7658 48.7228 79.8276 47.6623C80.888 46.6006 81.4837 45.1613 81.4837 43.6606C81.4837 42.1599 80.888 40.7206 79.8276 39.6589L76.3543 36.1856C75.5132 35.3542 74.4329 34.807 73.2649 34.6208C72.097 34.4346 70.9 34.6188 69.8421 35.1475L66.5954 31.9196C68.9826 28.872 70.1182 25.029 69.771 21.1733C69.4238 17.3177 67.6198 13.7394 64.7265 11.1673C61.8333 8.5952 58.0683 7.22276 54.1985 7.32952C50.3288 7.43628 46.6452 9.01421 43.8982 11.7419C41.1511 14.4696 39.5472 18.1419 39.4131 22.0109C39.279 25.8798 40.6248 29.6544 43.1764 32.5657C45.7279 35.4771 49.2934 37.3063 53.1465 37.6807C56.9996 38.0552 60.8505 36.9468 63.915 34.5812H63.9905ZM54.7412 11.3258C56.9812 11.3258 59.1709 11.99 61.0334 13.2345C62.8959 14.479 64.3475 16.2478 65.2047 18.3173C66.0619 20.3868 66.2862 22.664 65.8492 24.861C65.4122 27.0579 64.3336 29.076 62.7496 30.6599C61.1657 32.2438 59.1477 33.3225 56.9507 33.7595C54.7537 34.1965 52.4765 33.9722 50.407 33.115C48.3375 32.2578 46.5687 30.8062 45.3242 28.9437C44.0797 27.0812 43.4155 24.8914 43.4155 22.6514C43.4155 19.6477 44.6087 16.7669 46.7327 14.643C48.8567 12.519 51.7374 11.3258 54.7412 11.3258Z" fill="white"/>
</svg>
