<svg width="20" height="20" viewBox="0 0 20 20" fill="none" xmlns="http://www.w3.org/2000/svg">
<g clip-path="url(#clip0_594_1415)">
<path fill-rule="evenodd" clip-rule="evenodd" d="M5.28601 0H15.2698C18.0242 0 20.2778 2.25321 20.2778 5.00728V14.6933C20.2778 17.4473 18.0242 19.7004 15.2698 19.7004H5.28601C2.53149 19.7004 0.277832 17.4473 0.277832 14.6933V5.00728C0.277832 2.25306 2.53149 0 5.28601 0ZM5.25346 1.81131C3.51276 1.81131 2.08885 3.23508 2.08885 4.97533V14.7251C2.08885 16.4653 3.51291 17.8892 5.25346 17.8892H15.3022C17.0426 17.8892 18.4667 16.4655 18.4667 14.7251V4.97533C18.4667 3.23523 17.0426 1.81131 15.3022 1.81131H5.25346Z" fill="white"/>
<path fill-rule="evenodd" clip-rule="evenodd" d="M10.278 4.71289C13.1156 4.71289 15.4158 7.01268 15.4158 9.84975C15.4158 12.6868 13.1156 14.9869 10.278 14.9869C7.44037 14.9869 5.14014 12.687 5.14014 9.84975C5.14014 7.01283 7.44037 4.71289 10.278 4.71289ZM10.278 6.40762C8.37656 6.40762 6.83516 7.94871 6.83516 9.84975C6.83516 11.7509 8.37656 13.2919 10.278 13.2919C12.1794 13.2919 13.7208 11.7508 13.7208 9.84975C13.7208 7.94871 12.1794 6.40762 10.278 6.40762Z" fill="white"/>
<path fill-rule="evenodd" clip-rule="evenodd" d="M15.6226 5.72968C16.2879 5.72968 16.8304 5.18731 16.8304 4.52223C16.8304 3.8573 16.288 3.31494 15.6226 3.31494C14.9576 3.31494 14.415 3.8573 14.415 4.52223C14.415 5.18731 14.9576 5.72968 15.6226 5.72968Z" fill="white"/>
</g>
<defs>
<clipPath id="clip0_594_1415">
<rect width="20" height="20" fill="white"/>
</clipPath>
</defs>
</svg>
